HIERARCHY
ROOT root
{
	OFFSET 0.000000 0.000000 0.000000
	CHANNELS 6 Xposition Yposition Zposition Zrotation Yrotation Xrotation
	JOINT lhip
	{
		OFFSET 0.058581 -0.082280 -0.017664
		CHANNELS 3 Zrotation Yrotation Xrotation
		JOINT lknee
		{
			OFFSET 0.043451 -0.386469 0.008037
			CHANNELS 3 Zrotation Yrotation Xrotation
			JOINT lankle
			{
				OFFSET -0.014790 -0.426874 -0.037428
				CHANNELS 3 Zrotation Yrotation Xrotation
				JOINT ltoe
				{
					OFFSET 0.041054 -0.060286 0.122042
					CHANNELS 3 Zrotation Yrotation Xrotation
					End Site
					{
						OFFSET 0.000000 0.000000 0.000000
					}
				}
			}
		}
	}
	JOINT rhip
	{
		OFFSET -0.060310 -0.090513 -0.013543
		CHANNELS 3 Zrotation Yrotation Xrotation
		JOINT rknee
		{
			OFFSET -0.043257 -0.383688 -0.004843
			CHANNELS 3 Zrotation Yrotation Xrotation
			JOINT rankle
			{
				OFFSET 0.019056 -0.420046 -0.034562
				CHANNELS 3 Zrotation Yrotation Xrotation
				JOINT rtoe
				{
					OFFSET -0.034840 -0.062106 0.130323
					CHANNELS 3 Zrotation Yrotation Xrotation
					End Site
					{
						OFFSET 0.000000 0.000000 0.000000
					}
				}
			}
		}
	}
	JOINT lowerback
	{
		OFFSET 0.004439 0.124404 -0.038385
		CHANNELS 3 Zrotation Yrotation Xrotation
		JOINT upperback
		{
			OFFSET 0.004488 0.137956 0.026820
			CHANNELS 3 Zrotation Yrotation Xrotation
			JOINT chest
			{
				OFFSET -0.002265 0.056032 0.002855
				CHANNELS 3 Zrotation Yrotation Xrotation
				JOINT lowerneck
				{
					OFFSET -0.013390 0.211636 -0.033468
					CHANNELS 3 Zrotation Yrotation Xrotation
					JOINT upperneck
					{
						OFFSET 0.010113 0.088937 0.050410
						CHANNELS 3 Zrotation Yrotation Xrotation
						End Site
						{
							OFFSET 0.000000 0.000000 0.000000
						}
					}
				}
				JOINT lclavicle
				{
					OFFSET 0.071702 0.114000 -0.018898
					CHANNELS 3 Zrotation Yrotation Xrotation
					JOINT lshoulder
					{
						OFFSET 0.122921 0.045205 -0.019046
						CHANNELS 3 Zrotation Yrotation Xrotation
						JOINT lelbow
						{
							OFFSET 0.255332 -0.015649 -0.022946
							CHANNELS 3 Zrotation Yrotation Xrotation
							JOINT lwrist
							{
								OFFSET 0.265709 0.012698 -0.007375
								CHANNELS 3 Zrotation Yrotation Xrotation
								End Site
								{
									OFFSET 0.000000 0.000000 0.000000
								}
							}
						}
					}
				}
				JOINT rclavicle
				{
					OFFSET -0.082954 0.112472 -0.023707
					CHANNELS 3 Zrotation Yrotation Xrotation
					JOINT rshoulder
					{
						OFFSET -0.113228 0.046853 -0.008472
						CHANNELS 3 Zrotation Yrotation Xrotation
						JOINT relbow
						{
							OFFSET -0.260127 -0.014369 -0.031269
							CHANNELS 3 Zrotation Yrotation Xrotation
							JOINT rwrist
							{
								OFFSET -0.269108 0.006794 -0.006027
								CHANNELS 3 Zrotation Yrotation Xrotation
								End Site
								{
									OFFSET 0.000000 0.000000 0.000000
								}
							}
						}
					}
				}
			}
		}
	}
}
MOTION
Frames: 10
Frame Time: 0.033333
0.025172 0.221776 1.005070 84.236227 -1.180918 83.270409 5.686244 3.538150 8.441408 -3.464788 0.460242 2.703970 -1.572226 13.899975 -3.143534 0.000000 -0.000000 0.000000 -2.665963 -6.037949 3.828828 1.104253 -3.409029 7.983664 3.051072 -8.751499 -5.445156 0.000000 -0.000000 0.000000 -0.087249 1.413231 9.036312 -0.771946 0.021778 6.686653 -0.428647 0.199195 2.981139 -2.009195 -4.496751 5.655047 4.239906 -0.723459 18.674987 -17.763275 3.213940 7.831317 -58.177922 1.313294 16.589944 -7.443374 -65.013344 15.254559 10.069875 -2.314063 -46.680264 16.549159 3.215578 4.759538 60.160448 2.184886 19.721413 3.376516 49.174340 13.405347 14.207248 -0.496811 -18.242794 
0.025940 0.221801 1.004917 84.192068 -1.219627 83.397874 5.620512 3.523750 8.391602 -3.486912 0.425733 2.634151 -1.625741 14.075121 -3.165166 0.000000 -0.000000 0.000000 -2.710477 -5.854224 3.779686 1.145376 -3.317343 7.915295 3.359174 -8.981619 -5.489615 0.000000 -0.000000 0.000000 -0.088660 1.391443 8.859701 -0.798185 0.043013 6.642612 -0.421850 0.260818 3.077890 -2.033469 -4.743849 5.569110 4.136956 -0.492501 18.695948 -17.681965 3.164900 7.920025 -58.394180 1.380961 16.429187 -7.381806 -65.052598 15.469327 10.349644 -1.895109 -46.817726 16.351574 3.309437 5.002107 60.524628 2.227599 19.709061 2.862609 49.319317 12.925696 14.136199 -0.630723 -18.142310 
0.026495 0.221937 1.004910 84.131996 -1.231976 83.405427 5.592885 3.518790 8.435994 -3.467510 0.558526 2.593868 -1.671256 14.018686 -3.208197 0.000000 -0.000000 0.000000 -2.720411 -5.847475 3.751611 1.092324 -3.356101 7.999468 3.438673 -8.889541 -5.521249 0.000000 -0.000000 0.000000 -0.096256 1.410763 8.865000 -0.786920 0.070286 6.643095 -0.391706 0.284388 3.113955 -2.074641 -4.694672 5.471601 4.188813 -0.446158 18.712869 -17.681958 3.158611 7.904602 -58.663168 1.303952 16.386611 -6.615410 -65.008953 14.513237 11.182028 -2.319672 -46.438753 16.325464 3.268232 4.948035 60.602822 2.250406 19.680519 2.743263 49.286376 12.829771 13.940844 -0.685688 -18.005779 
0.026993 0.222083 1.004872 84.180306 -1.246149 83.453612 5.545925 3.476098 8.421230 -3.467390 0.511034 2.551247 -1.590157 14.067918 -3.175965 0.000000 -0.000000 0.000000 -2.749679 -5.865367 3.682333 1.100221 -3.368707 8.071986 3.362813 -8.924899 -5.513763 0.000000 -0.000000 0.000000 -0.067270 1.407878 8.868522 -0.791744 0.027105 6.610811 -0.391799 0.246159 3.112585 -2.141788 -4.762417 5.648876 4.157464 -0.257000 18.406810 -17.636237 3.169158 8.025651 -58.908282 1.450708 16.496006 -6.693887 -64.910083 14.599489 10.946314 -1.574940 -47.555199 16.267827 3.260001 4.983980 60.812106 2.284306 19.756357 2.394414 49.277265 12.592111 13.548819 -0.859233 -18.029301 
0.027306 0.222088 1.004921 84.207381 -1.249359 83.444763 5.533415 3.495640 8.449511 -3.449047 0.559072 2.553702 -1.581035 13.958808 -3.192321 0.000000 -0.000000 0.000000 -2.744803 -5.818191 3.709933 1.061646 -3.454073 8.089420 3.402903 -8.879168 -5.548164 0.000000 -0.000000 0.000000 -0.047477 1.378688 8.910691 -0.816645 0.050724 6.590339 -0.428256 0.218119 3.120476 -2.051766 -4.577360 5.416851 4.120545 -0.350776 18.666792 -17.619166 3.282538 8.062800 -59.088740 1.322308 16.185012 -5.894935 -64.934740 14.547701 10.502799 -2.256723 -46.653163 16.295886 3.252752 5.000446 60.980717 2.251192 19.630369 2.172072 49.295731 12.762415 13.582758 -0.703303 -17.955585 
0.027906 0.222183 1.004902 84.215608 -1.243600 83.426814 5.517291 3.570726 8.497759 -3.396457 0.556456 2.560038 -1.638973 13.925153 -3.241794 0.000000 -0.000000 0.000000 -2.763401 -5.844155 3.777004 1.046192 -3.504634 8.063261 3.391415 -8.814751 -5.561589 0.000000 -0.000000 0.000000 -0.010286 1.389834 8.860574 -0.817721 0.038244 6.676734 -0.429933 0.227068 3.160090 -2.035044 -4.483977 5.371366 4.084806 -0.275777 18.687320 -17.672471 3.330023 8.075446 -59.349042 1.383746 15.968266 -5.277817 -65.083586 14.526018 10.510542 -2.278916 -45.959893 16.282418 3.234676 5.052553 61.188385 2.197223 19.442973 1.671012 49.501694 12.764703 13.290769 -0.852258 -17.470024 
0.028346 0.222287 1.004917 84.230985 -1.225954 83.443426 5.527498 3.575406 8.501067 -3.392027 0.599266 2.560607 -1.594348 13.788414 -3.214514 0.000000 -0.000000 0.000000 -2.752724 -5.829476 3.739613 1.022386 -3.604847 8.161338 3.371434 -8.738795 -5.658109 0.000000 -0.000000 0.000000 0.025639 1.399519 8.820448 -0.806373 0.040434 6.772438 -0.456779 0.248305 3.135955 -1.995892 -4.333504 5.240473 4.089230 -0.386063 18.778942 -17.680121 3.446744 8.159782 -59.811736 1.384923 15.623443 -4.136595 -65.219528 14.444013 10.299670 -2.679256 -44.958032 16.317798 3.109404 5.111418 61.525127 2.075664 19.107733 0.713670 49.851179 12.651324 13.168311 -0.791414 -16.689024 
0.028560 0.222375 1.004873 84.251775 -1.213742 83.480721 5.539938 3.548022 8.453242 -3.392179 0.687712 2.623996 -1.553742 13.671521 -3.220528 0.000000 -0.000000 0.000000 -2.749048 -5.849342 3.682969 0.990716 -3.706898 8.243613 3.368636 -8.618148 -5.666893 0.000000 -0.000000 0.000000 0.067241 1.405214 8.791163 -0.794537 0.009517 6.877705 -0.481234 0.284370 3.034782 -1.985951 -4.254167 5.230172 4.012738 -0.403879 18.786449 -17.754941 3.554741 8.188288 -60.237342 1.510970 15.228517 -2.973099 -65.516126 14.334118 9.836419 -2.859849 -43.895359 16.361281 3.042059 5.241504 61.948377 1.958581 18.775913 -0.771409 50.436670 12.293638 13.155474 -1.217808 -15.284724 
0.028689 0.222369 1.004860 84.289083 -1.188975 83.483920 5.587957 3.551827 8.437625 -3.418178 0.709321 2.642660 -1.498251 13.556499 -3.184809 0.000000 -0.000000 0.000000 -2.716602 -5.873908 3.632598 0.941839 -3.798974 8.359413 3.318665 -8.527841 -5.736718 0.000000 -0.000000 0.000000 0.091357 1.439731 8.758666 -0.750123 -0.069997 6.991066 -0.475021 0.218523 3.027946 -2.072002 -4.144793 5.252532 3.995772 -0.311827 18.596072 -17.796391 3.553177 8.293377 -60.923797 1.754389 14.984215 -1.326266 -65.774973 13.713908 9.499081 -2.597982 -43.534183 16.324435 3.002292 5.199016 62.455307 1.920550 18.606248 -2.183538 51.103889 12.444136 13.097702 -1.760178 -13.575875 
0.028800 0.222293 1.004848 84.325808 -1.155654 83.466035 5.623618 3.604224 8.417501 -3.363021 0.817457 2.693718 -1.522177 13.296328 -3.186989 0.000000 -0.000000 0.000000 -2.668215 -5.842812 3.558700 0.869708 -4.040397 8.556503 3.237802 -8.378043 -5.812494 0.000000 -0.000000 0.000000 0.164032 1.410468 8.743758 -0.727829 -0.100010 7.115581 -0.508236 0.143144 2.966072 -1.970720 -3.819078 5.196731 3.750754 -0.260058 18.727694 -17.961515 3.758428 8.383240 -61.710329 1.667112 14.190154 1.398469 -66.121157 13.314467 8.288762 -3.725232 -41.491713 16.327520 2.955533 5.251351 62.990736 2.074331 18.225616 -3.487007 51.936629 13.338342 12.984372 -1.785779 -11.819799 
